<svg xmlns="http://www.w3.org/2000/svg" width="32" height="32" fill="none"><mask id="a" width="32" height="21" x="0" y="0" maskUnits="userSpaceOnUse" style="mask-type:alpha"><path fill="#D9D9D9" d="M2.245 17.034c-.32.274-.687 1.15.412 2.463 1.067 1.276 2.652 1.279 3.372 1.11l19.842-.289c.55 0 1.95-.109 3.16-.547 1.208-.438 1.236-2.007 1.098-2.737.504-.228 1.539-1.15 1.648-3.011.11-1.861-1.236-2.874-1.923-3.148.413-.41.99-1.67 0-3.421-.989-1.752-2.701-2.099-3.434-2.053.046-.548-.165-1.889-1.373-2.874-1.209-.986-3.16-.776-3.984-.548-.458-.501-1.181-1.314-2.06-1.642-.88-.328-2.61-.137-3.16.137-.457-.228-1.593-.63-3.021-.41-1.429.218-2.015 1.368-2.06 1.915C9.236.67 7.491 1.6 6.502 2.527c-.989.926-1.145 2.509-1.099 3.284-.55-.09-1.95.11-3.16 1.643-1.208 1.533-.503 2.92 0 3.421-.365.091-1.29.74-2.06 2.6-.769 1.862 1.054 3.148 2.06 3.559"/></mask><g mask="url(#a)"><ellipse cx="23.261" cy="8.959" fill="#F40F46" rx="11.676" ry="13.139"/><ellipse cx="8.516" cy="8.896" fill="#F3CD07" rx="8.516" ry="8.896" transform="rotate(-1.812 -115.112 14.207)skewX(.013)"/><path fill="#0395FF" d="M9.388 14.844c0 3.704-3.768 6.706-6.044 6.706s-4.121-3.002-4.121-6.706 1.845-6.706 4.12-6.706c2.277 0 6.045 3.002 6.045 6.706"/></g><circle cx="16" cy="19" r="12" fill="#fff" stroke="#6B6B6B" stroke-width="2"/><circle cx="16" cy="21" r="3" fill="#F40F46"/><path stroke="#000" stroke-linecap="round" stroke-width="2" d="M13 25c0 1.167 1.25 2 2.875 2C17.75 27 19 26.083 19 25"/><circle cx="15.5" cy="19.5" r=".5" fill="#fff" fill-opacity=".8"/><path fill="#0395FF" d="M10.818 22 9 15.667l1-2.834L11 10l2 5.667zM19 15.667 21 10l2 5.667L20.818 22z"/><circle cx="21" cy="16" r="2" fill="#000"/><circle cx="11" cy="16" r="2" fill="#000"/></svg>