<svg width="33" height="32" viewBox="0 0 33 32" fill="none" xmlns="http://www.w3.org/2000/svg">
<mask id="mask0_27_3" style="mask-type:alpha" maskUnits="userSpaceOnUse" x="1" y="2" width="32" height="21">
<path d="M3.24484 19.0338C2.92433 19.3075 2.55803 20.1834 3.65692 21.4973C4.72388 22.773 6.30883 22.7756 7.02869 22.6077L26.8709 22.3184C27.4204 22.3184 28.8215 22.209 30.0302 21.771C31.239 21.3331 31.2665 19.7637 31.1291 19.0338C31.6328 18.8057 32.6676 17.8842 32.7774 16.0229C32.8873 14.1616 31.5412 13.1489 30.8544 12.8752C31.2665 12.4646 31.8434 11.2055 30.8544 9.45369C29.8654 7.70189 28.153 7.35518 27.4204 7.4008C27.4662 6.85336 27.2555 5.51214 26.0468 4.52676C24.838 3.54137 22.8875 3.75122 22.0633 3.97932C21.6054 3.47751 20.882 2.66547 20.0029 2.33701C19.1238 2.00855 17.393 2.20015 16.8436 2.47387C16.3857 2.24577 15.2502 1.84432 13.8216 2.06329C12.3931 2.28227 11.807 3.43189 11.7612 3.97932C10.2374 2.67034 8.49162 3.60047 7.50303 4.52676C6.51443 5.45305 6.35835 7.03584 6.40414 7.81138C5.85469 7.72014 4.45361 7.92087 3.24484 9.45369C2.03606 10.9865 2.74118 12.3733 3.24484 12.8752C2.87854 12.9664 1.95364 13.6142 1.18442 15.4755C0.415198 17.3368 2.23752 18.6232 3.24484 19.0338Z" fill="#D9D9D9"/>
</mask>
<g mask="url(#mask0_27_3)">
<ellipse cx="24.2611" cy="10.9591" rx="11.6757" ry="13.1385" fill="#F40F46"/>
<ellipse cx="8.51635" cy="8.89588" rx="8.51635" ry="8.89588" transform="matrix(0.9995 -0.0316128 0.0318448 0.999493 0.493336 -1.63191)" fill="#F3CD07"/>
<path d="M10.3876 16.8441C10.3876 20.5478 6.61959 23.5502 4.34372 23.5502C2.06785 23.5502 0.222889 20.5478 0.222889 16.8441C0.222889 13.1404 2.06785 10.138 4.34372 10.138C6.61959 10.138 10.3876 13.1404 10.3876 16.8441Z" fill="#0395FF"/>
</g>
<circle cx="17" cy="19" r="10" fill="white" stroke="#6B6B6B" stroke-width="2"/>
<circle cx="17" cy="20" r="2" fill="#F40F46"/>
<path d="M14 23C14 24.1667 15.25 25 16.875 25C18.75 25 20 24.0833 20 23" stroke="black" stroke-width="2" stroke-linecap="round"/>
<circle cx="16.5" cy="19.5" r="0.5" fill="white" fill-opacity="0.8"/>
<path d="M12.3636 22L11 17.25L11.75 15.125L12.5 13L14 17.25L12.3636 22Z" fill="#0395FF"/>
<path d="M20 17.25L21.5 13L23 17.25L21.3636 22L20 17.25Z" fill="#0395FF"/>
<circle cx="21.5" cy="17.5" r="1.5" fill="black"/>
<circle cx="12.5" cy="17.5" r="1.5" fill="black"/>
</svg>
