<svg xmlns="http://www.w3.org/2000/svg" width="128" height="128" fill="none"><mask id="a" width="126" height="88" x="1" y="7" maskUnits="userSpaceOnUse" style="mask-type:alpha"><path fill="#D9D9D9" d="M9.9 78.644c-1.271 1.152-2.724 4.836 1.633 10.362 4.23 5.365 10.513 5.376 13.367 4.67l78.66-1.216c2.178 0 7.732-.46 12.524-2.303s4.901-8.442 4.356-11.513c1.997-.959 6.099-4.835 6.535-12.663s-4.901-12.089-7.624-13.24c1.634-1.727 3.921-7.023 0-14.39-3.92-7.369-10.709-8.827-13.613-8.635.181-2.303-.654-7.944-5.445-12.088-4.792-4.145-12.525-3.262-15.792-2.303-1.815-2.11-4.683-5.526-8.168-6.908-3.485-1.381-10.346-.575-12.525.576-1.815-.96-6.316-2.648-11.98-1.727-5.663.921-7.986 5.757-8.168 8.059-6.04-5.506-12.961-1.593-16.88 2.303-3.92 3.895-4.538 10.553-4.357 13.815-2.178-.384-7.732.46-12.524 6.907s-1.996 12.28 0 14.391c-1.452.384-5.118 3.108-8.168 10.937S5.906 76.918 9.9 78.644"/></mask><g mask="url(#a)"><ellipse cx="93.213" cy="44.682" fill="#F40F46" rx="46.286" ry="55.261"/><ellipse cx="33.763" cy="37.414" fill="#F3CD07" rx="33.763" ry="37.414" transform="matrix(.99944 -.03354 .03002 .99955 -1.009 -8.276)"/><path fill="#0395FF" d="M38.215 69.434c0 15.578-14.937 28.206-23.96 28.206-9.022 0-16.336-12.628-16.336-28.206s7.314-28.206 16.337-28.206 23.96 12.629 23.96 28.206"/></g><circle cx="64" cy="79" r="41" fill="#fff" stroke="#6B6B6B" stroke-width="6"/><circle cx="64" cy="84" r="9" fill="#F40F46"/><path stroke="#000" stroke-linecap="round" stroke-width="6" d="M52 97c0 4.083 5 7 11.5 7 7.5 0 12.5-3.208 12.5-7"/><ellipse cx="61.5" cy="80.5" fill="#fff" fill-opacity=".8" rx="2.5" ry="3.5"/><path fill="#0395FF" d="M46.455 93 41 72.944l3-8.972L47 55l6 17.944zM75 72.944 81 55l6 17.944L80.454 93z"/><ellipse cx="81" cy="72.5" fill="#000" rx="6" ry="5.5"/><ellipse cx="47" cy="72.5" fill="#000" rx="6" ry="5.5"/></svg>