<svg width="128" height="128" viewBox="0 0 128 128" fill="none" xmlns="http://www.w3.org/2000/svg">
<mask id="mask0_9_2" style="mask-type:alpha" maskUnits="userSpaceOnUse" x="12" y="16" width="105" height="73">
<path d="M19.3648 75.292C18.3133 76.2447 17.1116 79.2936 20.7168 83.8669C24.2173 88.3073 29.4172 88.3165 31.7789 87.7319L96.877 86.7252C98.6796 86.7252 103.276 86.3441 107.242 84.8196C111.208 83.2952 111.298 77.8327 110.847 75.292C112.5 74.498 115.895 71.2903 116.255 64.8115C116.616 58.3327 112.199 54.8074 109.946 53.8547C111.298 52.4255 113.191 48.0428 109.946 41.9451C106.701 35.8473 101.083 34.6405 98.6796 34.7993C98.8298 32.8938 98.1388 28.2252 94.1731 24.7952C90.2074 21.3653 83.8081 22.0957 81.1042 22.8897C79.602 21.143 77.2286 18.3164 74.3444 17.1731C71.4602 16.0298 65.782 16.6967 63.9794 17.6495C62.4772 16.8555 58.7518 15.4581 54.0651 16.2203C49.3783 16.9825 47.4555 20.9842 47.3053 22.8897C42.3059 18.3334 36.5784 21.571 33.335 24.7952C30.0917 28.0195 29.5796 33.5289 29.7298 36.2285C27.9272 35.9109 23.3306 36.6096 19.3648 41.9451C15.3991 47.2806 17.7124 52.1079 19.3648 53.8547C18.1631 54.1723 15.1287 56.4271 12.605 62.906C10.0814 69.3848 16.06 73.8628 19.3648 75.292Z" fill="#D9D9D9"/>
</mask>
<g mask="url(#mask0_9_2)">
<ellipse cx="88.3146" cy="47.1853" rx="38.3054" ry="45.7329" fill="#F40F46"/>
<ellipse cx="27.9421" cy="30.9633" rx="27.9421" ry="30.9633" transform="matrix(0.999437 -0.0335383 0.0300164 0.999549 10.3377 3.35788)" fill="#F3CD07"/>
<path d="M42.7987 67.6698C42.7987 80.5617 30.4367 91.0126 22.97 91.0126C15.5034 91.0126 9.45044 80.5617 9.45044 67.6698C9.45044 54.7779 15.5034 44.327 22.97 44.327C30.4367 44.327 42.7987 54.7779 42.7987 67.6698Z" fill="#0395FF"/>
</g>
<circle cx="64.1379" cy="75.5862" r="33.4138" fill="white" stroke="#6B6B6B" stroke-width="6"/>
<circle cx="64.1379" cy="79.7241" r="7.44828" fill="#F40F46"/>
<path d="M54.2069 90.4828C54.2069 93.8621 58.3448 96.2759 63.7242 96.2759C69.931 96.2759 74.069 93.6207 74.069 90.4828" stroke="black" stroke-width="6" stroke-linecap="round"/>
<ellipse cx="62.069" cy="76.8276" rx="2.06897" ry="2.89655" fill="white" fill-opacity="0.8"/>
<path d="M49.6176 87.1724L45.1035 70.5747L47.5862 63.1494L50.069 55.7241L55.0345 70.5747L49.6176 87.1724Z" fill="#0395FF"/>
<path d="M73.2414 70.5747L78.2069 55.7241L83.1724 70.5747L77.7555 87.1724L73.2414 70.5747Z" fill="#0395FF"/>
<ellipse cx="78.2069" cy="70.2069" rx="4.96552" ry="4.55172" fill="black"/>
<ellipse cx="50.069" cy="70.2069" rx="4.96552" ry="4.55172" fill="black"/>
</svg>
